# xmcd
#
# Track frame offsets: 
#        150
#        16502
#        31926
#        44537
#        59047
#        76162
#        91275
#        109814
#        126053
#        138328
#        152355
#        166584
#        181075
#        203667
#        219542
#        236857
#        251745
#        263058
#
# Disc length: 3686 seconds
#
# Revision: 2
# Processed by: cddbd v1.5.2PL0 Copyright (c) Steve Scherf et al.
# Submitted via: ExactAudioCopy v0.90b4
#
DISCID=e50e6412
DTITLE=Tim LaHaye and Jerry B. Jenkins - Nicolae - Disc 07 of 10 (Unabri
DTITLE=dged)
DYEAR=1997
DGENRE=Book (unabridged)
TTITLE0=0115 Nicolae
TTITLE1=0116 Nicolae
TTITLE2=0117 Nicolae
TTITLE3=0118 Nicolae
TTITLE4=0119 Nicolae
TTITLE5=0120 Nicolae
TTITLE6=0121Nicolae
TTITLE7=0122 Nicolae
TTITLE8=0123 Nicolae
TTITLE9=0124 Nicolae
TTITLE10=0125 Nicolae
TTITLE11=0126 Nicolae
TTITLE12=0127 Nicolae
TTITLE13=0128 Nicolae
TTITLE14=0129 Nicolae
TTITLE15=0130 Nicolae
TTITLE16=0131 Nicolae
TTITLE17=0132 Nicolae
EXTD=YEAR: 1997
EXTT0=
EXTT1=
EXTT2=
EXTT3=
EXTT4=
EXTT5=
EXTT6=
EXTT7=
EXTT8=
EXTT9=
EXTT10=
EXTT11=
EXTT12=
EXTT13=
EXTT14=
EXTT15=
EXTT16=
EXTT17=
PLAYORDER=
